<?xml version="1.0" standalone="no"?>
<!DOCTYPE svg PUBLIC "-//W3C//DTD SVG 20010904//EN"
 "http://www.w3.org/TR/2001/REC-SVG-20010904/DTD/svg10.dtd">
<svg version="1.0" xmlns="http://www.w3.org/2000/svg"
 width="1024.000000pt" height="1058.000000pt" viewBox="0 0 1024.000000 1058.000000"
 preserveAspectRatio="xMidYMid meet">

<g transform="translate(0.000000,1058.000000) scale(0.100000,-0.100000)"
fill="#000000" stroke="none">
<path d="M4110 7743 c-311 -6 -695 -35 -1005 -74 -489 -61 -1116 -201 -1269
-282 -159 -85 -256 -254 -256 -448 0 -279 209 -490 484 -489 60 1 115 10 211
35 344 92 616 147 935 189 1229 162 2639 50 3780 -300 407 -125 737 -263 1070
-448 193 -107 233 -120 361 -114 85 4 106 9 173 41 184 87 278 241 278 452 -1
229 -84 351 -334 493 -886 501 -2107 831 -3413 922 -195 13 -683 30 -805 28
-52 -1 -147 -3 -210 -5z"/>
<path d="M3900 5980 c-354 -17 -710 -60 -1040 -126 -258 -51 -635 -150 -707
-186 -77 -38 -155 -118 -190 -195 -36 -78 -44 -233 -18 -317 36 -114 131 -213
245 -257 94 -37 185 -31 380 23 1201 335 2627 289 3863 -123 311 -104 643
-245 880 -375 345 -190 387 -205 505 -184 224 39 367 244 333 478 -25 170 -98
257 -332 389 -869 491 -1886 781 -3024 863 -206 14 -683 20 -895 10z"/>
<path d="M4040 4303 c-423 -16 -964 -85 -1447 -184 -232 -47 -287 -67 -351
-124 -75 -67 -97 -125 -97 -255 0 -119 14 -156 85 -234 95 -103 197 -118 427
-62 154 37 528 103 743 130 1377 174 2549 -21 3519 -587 140 -82 203 -106 273
-107 142 0 274 95 309 224 19 66 13 184 -11 249 -39 103 -142 181 -461 346
-856 444 -1865 648 -2989 604z"/>
</g>
</svg>
